<svg width="696" height="372" viewBox="0 0 696 372" fill="none" xmlns="http://www.w3.org/2000/svg">
<path d="M524 123L524.083 122.003L524.021 121.998L523.958 122.001L524 123ZM522 142.5L521.293 143.207L522 142.5ZM522 151.5L522.447 152.394L522.745 152.245L522.894 151.947L522 151.5ZM89 273.5L88.8408 274.487L88.968 274.508L89.0963 274.495L89 273.5ZM28 250L27.0027 249.926L28 250ZM1.5 211.5H0.5V211.942L0.827327 212.24L1.5 211.5ZM34.7108 143.17L35.7046 143.058L35.7005 143.022L35.694 142.987L34.7108 143.17ZM28.5223 168.266L29.1669 169.031L28.5223 168.266ZM196.497 141.954L195.672 141.388L195.661 141.404L195.651 141.42L196.497 141.954ZM188.54 149.913L188.94 150.829L188.54 149.913ZM157.597 152.566L157.782 151.583L157.597 152.566ZM280.853 70.3214L280.069 70.9414L280.087 70.9641L280.106 70.9858L280.853 70.3214ZM297.281 94.1988L296.317 94.4619L297.281 94.1988ZM297.281 124.267L296.298 124.446L296.303 124.478L296.311 124.509L297.281 124.267ZM306.122 139.301L305.375 139.965L306.122 139.301ZM322.036 167.6L321.065 167.842L322.036 167.6ZM317.615 197.668L318.396 198.292L317.615 197.668ZM247.773 88.0084L248.338 87.1831L247.773 88.0084ZM219.061 266.649C219.551 266.394 219.741 265.789 219.485 265.3C219.23 264.81 218.626 264.62 218.136 264.876L219.061 266.649ZM194.729 281.681L193.897 281.126H193.896L194.729 281.681ZM186.671 307.156C186.576 307.7 186.941 308.218 187.485 308.312C188.029 308.407 188.547 308.042 188.641 307.498L186.671 307.156ZM155.829 286.987L155.709 287.98L155.769 287.987H155.829V286.987ZM181.467 287.987C182.02 287.987 182.467 287.539 182.467 286.987C182.467 286.435 182.02 285.987 181.467 285.987V287.987ZM210.521 226.497L210.612 227.493H210.612L210.521 226.497ZM213.673 225.171L213.195 224.292V224.292L213.673 225.171ZM216.765 223.601L217.216 224.493L217.216 224.493L216.765 223.601ZM252.157 226.395L252.437 227.355H252.437L252.157 226.395ZM255.172 224.622L254.586 223.811L255.172 224.622ZM256.676 224.031L256.619 225.029H256.619L256.676 224.031ZM258.18 225.213L258.924 224.544L258.924 224.544L258.18 225.213ZM247.304 225.989L246.738 226.813L246.738 226.813L247.304 225.989ZM245.036 225.213L244.88 226.201L244.88 226.201L245.036 225.213ZM240.571 225.129L240.627 226.128H240.627L240.571 225.129ZM230.112 225.344L230.074 224.345L230.112 225.344ZM260.305 234.612L259.348 234.902L259.349 234.903L260.305 234.612ZM260.321 234.662L261.278 234.372L261.277 234.371L260.321 234.662ZM260.843 236.905L259.848 237.004L259.848 237.004L260.843 236.905ZM259.41 239.842L260.07 240.594L259.41 239.842ZM250.659 243.461L250.569 242.465H250.569L250.659 243.461ZM248.641 243.568L247.977 244.316L247.977 244.316L248.641 243.568ZM313.71 201.232C313.236 200.948 312.622 201.101 312.337 201.575C312.053 202.048 312.207 202.663 312.68 202.947L313.71 201.232ZM299.05 243.654L298.994 242.655L298.923 242.659L298.854 242.673L299.05 243.654ZM287.557 256.919L288.543 256.755L287.557 256.919ZM242.965 265.779C242.486 265.505 241.875 265.671 241.601 266.151C241.326 266.63 241.493 267.241 241.973 267.515L242.965 265.779ZM124.003 202.089L123.543 201.201L123.44 201.255L123.352 201.33L124.003 202.089ZM287.557 133.11L286.563 132.993L286.56 133.023L286.558 133.052L287.557 133.11ZM281.368 164.947L280.374 164.835L280.362 164.944L280.374 165.053L281.368 164.947ZM269.875 237.463L270.39 238.321L270.698 238.136L270.818 237.796L269.875 237.463ZM261.918 250.729L260.97 250.412L261.918 250.729ZM246.889 265.763L247.205 266.711V266.711L246.889 265.763ZM215.062 265.763L214.829 266.735L214.89 266.75L214.952 266.756L215.062 265.763ZM268.107 149.028L268.939 149.583L268.107 149.028ZM262.802 152.566L262.638 153.552L262.843 153.586L263.045 153.536L262.802 152.566ZM206.222 147.26L206.669 148.154L206.222 147.26ZM273.601 199.198C273.051 199.143 272.561 199.544 272.506 200.093C272.451 200.643 272.852 201.133 273.402 201.188L273.601 199.198ZM276.621 211.1L275.621 211.1V211.1H276.621ZM275.621 219.308C275.621 219.86 276.069 220.308 276.621 220.308C277.173 220.308 277.621 219.86 277.621 219.308H275.621ZM258.928 129.573L258.578 128.636L258.302 128.739L258.126 128.976L258.928 129.573ZM245.121 148.144L244.318 147.547L243.944 148.052L244.235 148.608L245.121 148.144ZM243.182 195.777L243.508 196.722L243.182 195.777ZM228.56 194.743L227.643 195.141L227.75 195.388L227.967 195.548L228.56 194.743ZM251.055 231.982L251.207 230.994L251.107 230.979L251.007 230.984L251.055 231.982ZM225.185 228.879L225.862 228.143L225.658 227.955L225.386 227.899L225.185 228.879ZM261.918 175.559L261.018 175.994L261.137 176.24L261.365 176.392L261.918 175.559ZM263.427 196.783L263.933 197.646L263.427 196.783ZM253.962 195.618L254.394 194.716L254.259 194.651L254.11 194.629L253.962 195.618ZM117.4 205.633L117.737 206.574L117.4 205.633ZM42.2536 109.233L42.7945 110.074L42.8849 110.016L42.9608 109.94L42.2536 109.233ZM131.545 26.9883L131.993 27.8827L131.545 26.9883ZM370.747 108.367L369.747 108.35L370.747 108.367ZM378.862 142.224L379.862 142.209L379.861 142.187L379.86 142.166L378.862 142.224ZM405.403 222.43L406.23 221.867L405.403 222.43ZM419.598 240.144L419.856 239.178L419.806 239.164L419.754 239.156L419.598 240.144ZM447.161 233.042L446.643 232.186L447.161 233.042ZM510.814 192.362L511.706 192.813L510.814 192.362ZM498.837 30.5697L498.48 31.5038L498.837 30.5697ZM405.403 36.7228L405.193 35.7449L404.951 35.7969L404.76 35.9566L405.403 36.7228ZM430.837 94.6684L430.362 93.7881L430.837 94.6684ZM456.612 89.5376L456.849 88.566L456.704 88.5305L456.554 88.5393L456.612 89.5376ZM520.539 40.495L521.102 39.6688L521.083 39.6553L521.062 39.6427L520.539 40.495ZM561.206 16.376L561.672 17.2609L561.206 16.376ZM649.614 22.5665L648.891 23.2568L649.614 22.5665ZM667.296 258.688L666.339 258.978L667.296 258.688ZM693.818 348.891L693.779 349.891L695.155 349.944L694.78 348.619L693.818 348.891ZM557.67 343.585L557.133 344.429L557.361 344.574L557.631 344.584L557.67 343.585ZM529.457 220.751L530.375 221.148L530.507 220.842L530.429 220.518L529.457 220.751ZM532.032 78.2805L531.099 77.9196V77.9196L532.032 78.2805ZM337.535 74.7432L336.925 73.9507L337.535 74.7432ZM318.085 139.301L317.09 139.4L318.085 139.301ZM273.882 302.905L272.926 303.201L273.882 302.905ZM311.013 371L310.243 371.638L310.543 372H311.013V371ZM401.189 371V372H402.021L402.172 371.182L401.189 371ZM404.725 307.327L403.776 307.643L404.725 307.327ZM392.348 272.837L393.297 272.521L392.348 272.837ZM392.348 225.967L391.39 225.68L391.379 225.716L391.371 225.753L392.348 225.967ZM403.841 116.308L403.195 117.071L403.319 117.176L403.469 117.236L403.841 116.308ZM390.58 156.988L391.323 157.657L390.58 156.988ZM470.147 70.3214L469.246 70.7551L470.147 70.3214ZM486.06 150.797L487.055 150.698L486.06 150.797ZM470.147 205.627L469.31 205.078L470.928 206.252L470.147 205.627ZM501.973 70.3214L502.955 70.1284L502.894 69.8183L502.665 69.5995L501.973 70.3214ZM437.563 112.772L438.188 113.552L437.563 112.772ZM438.984 112.263L439.525 113.104H439.525L438.984 112.263ZM442.599 110.103L442.197 109.188L442.599 110.103ZM446.408 108.681L446.191 107.705L446.408 108.681ZM450.988 107.154L450.582 106.24L450.988 107.154ZM459.201 107.558L458.42 108.182L459.201 107.558ZM467.344 110.63L468.051 109.923V109.923L467.344 110.63ZM451.978 119.305L451.92 120.304L451.978 119.305ZM460.488 117.177L461.174 117.904L460.488 117.177ZM392.57 128.684L392.909 127.743V127.743L392.57 128.684ZM413.371 169.747L413.955 168.935L413.371 169.747ZM410.674 170.276L409.742 170.64V170.64L410.674 170.276ZM518.771 280.797L517.771 280.83L518.771 280.797ZM542.641 320.592L543.594 320.291L542.641 320.592ZM393.232 60.5936L392.818 59.6832L392.809 59.6874L393.232 60.5936ZM364.057 123.382L365.052 123.28L364.057 123.382ZM371.13 182.634L371.994 182.13L371.13 182.634ZM385.275 218.892L386.259 218.713L386.248 218.654L386.23 218.596L385.275 218.892ZM379.087 239.232L378.092 239.335L378.355 241.875L379.887 239.832L379.087 239.232ZM364.057 202.089L363.377 202.822V202.822L364.057 202.089ZM341.071 146.375L342.065 146.261L341.071 146.375ZM367.594 68.5527L368.301 69.2597L367.594 68.5527ZM402.332 191.855C402.263 192.403 402.652 192.903 403.2 192.972C403.748 193.04 404.248 192.651 404.316 192.103L402.332 191.855ZM416.414 190.89L416.741 191.835L416.414 190.89ZM432.817 189.986L432.462 190.921L432.817 189.986ZM436.524 190.983L436.228 191.938L436.524 190.983ZM436.061 190.354C435.508 190.354 435.061 190.801 435.061 191.354C435.061 191.906 435.508 192.354 436.061 192.354V190.354ZM409.644 207.078C409.112 206.927 408.56 207.236 408.409 207.767C408.258 208.298 408.567 208.851 409.098 209.002L409.644 207.078ZM420.469 206.116L420.076 205.196L420.469 206.116ZM423.538 204.482L422.831 203.775L423.538 204.482ZM424.909 204.4C425.433 204.225 425.716 203.659 425.541 203.135C425.366 202.611 424.8 202.328 424.276 202.502L424.909 204.4ZM406.174 189.371C406.692 189.179 406.956 188.604 406.764 188.086C406.572 187.568 405.997 187.304 405.479 187.496L406.174 189.371ZM398.575 194.019L399.235 194.769L398.575 194.019ZM395.795 196.301L396.349 197.133L395.795 196.301ZM396.235 197.359C396.787 197.359 397.235 196.912 397.235 196.359C397.235 195.807 396.787 195.359 396.235 195.359V197.359ZM436.527 191.389C435.975 191.389 435.527 191.837 435.527 192.389C435.527 192.941 435.975 193.389 436.527 193.389V191.389ZM439.79 192.329L439.608 191.345L439.79 192.329ZM441.325 190.407C440.831 190.16 440.23 190.36 439.983 190.854C439.736 191.348 439.936 191.948 440.43 192.195L441.325 190.407ZM449.145 254.742L450.109 254.476L449.145 254.742ZM453.957 271.069L453.007 271.383L453.235 272.069H453.957V271.069ZM524.959 111.886L525.64 111.153L524.959 111.886ZM523.191 53.5188L524.086 53.0717L523.191 53.5188ZM532.916 52.6344L531.967 52.9506L532.916 52.6344ZM536.452 30.5257L535.653 29.9249L535.636 29.9475L535.62 29.9711L536.452 30.5257ZM532.032 35.8318L532.739 36.5388L532.032 35.8318ZM524.075 31.41L523.45 30.6293L523.407 30.6639L523.368 30.703L524.075 31.41ZM531.148 26.9883L531.464 27.9369L531.148 26.9883ZM536.452 26.6234L537.111 25.8714L536.909 25.6939L536.645 25.6421L536.452 26.6234ZM318.37 157.456L317.465 157.883L318.37 157.456ZM512.224 164.631C512.379 164.822 512.534 165.035 512.714 165.281C512.887 165.519 513.082 165.786 513.293 166.045C513.712 166.557 514.256 167.115 514.998 167.46C516.6 168.206 518.543 167.738 521.104 165.797L519.896 164.203C517.508 166.013 516.402 165.908 515.842 165.647C515.503 165.489 515.187 165.202 514.842 164.779C514.671 164.57 514.507 164.346 514.33 164.103C514.159 163.869 513.971 163.61 513.776 163.369L512.224 164.631ZM529.971 115.118C529.143 114.676 527.927 114.471 526.654 114.415C525.343 114.357 523.836 114.451 522.336 114.701C520.837 114.951 519.314 115.361 517.984 115.954C516.667 116.54 515.456 117.341 514.686 118.419L516.314 119.581C516.794 118.909 517.645 118.294 518.797 117.781C519.936 117.274 521.288 116.903 522.664 116.674C524.039 116.445 525.407 116.362 526.565 116.413C527.76 116.466 528.607 116.657 529.029 116.882L529.971 115.118ZM523.958 122.001C521.978 122.083 519.613 122.262 517.747 123.349C516.786 123.908 515.957 124.706 515.377 125.827C514.802 126.94 514.5 128.316 514.5 130H516.5C516.5 128.551 516.76 127.508 517.154 126.746C517.543 125.994 518.089 125.464 518.753 125.077C520.137 124.272 522.022 124.083 524.042 123.999L523.958 122.001ZM514.5 130C514.5 132.493 515.463 135.044 516.757 137.309C518.058 139.585 519.74 141.655 521.293 143.207L522.707 141.793C521.26 140.345 519.692 138.415 518.493 136.316C517.287 134.206 516.5 132.007 516.5 130H514.5ZM521.293 143.207C522.181 144.095 522.443 145.472 522.28 147.048C522.12 148.602 521.564 150.135 521.106 151.053L522.894 151.947C523.436 150.865 524.08 149.098 524.27 147.252C524.458 145.428 524.219 143.305 522.707 141.793L521.293 143.207ZM521.553 150.606C520.833 150.966 519.759 151.609 518.848 152.392C518.392 152.784 517.948 153.236 517.611 153.731C517.278 154.22 517 154.825 517 155.5H519C519 155.375 519.055 155.163 519.264 154.856C519.469 154.556 519.774 154.233 520.152 153.908C520.908 153.258 521.834 152.701 522.447 152.394L521.553 150.606ZM517 155.5C517 156.693 517.31 157.724 518.168 158.582C518.966 159.38 520.154 159.939 521.684 160.449L522.316 158.551C520.846 158.061 520.034 157.62 519.582 157.168C519.19 156.776 519 156.307 519 155.5H517ZM523.917 123.997C524.834 124.073 527.525 124.531 530.019 125.406C531.266 125.844 532.403 126.366 533.235 126.959C534.087 127.567 534.453 128.13 534.506 128.61L536.494 128.39C536.347 127.07 535.426 126.066 534.397 125.331C533.346 124.582 532.009 123.985 530.681 123.519C528.025 122.586 525.166 122.094 524.083 122.003L523.917 123.997ZM121.207 204.11C124.479 208.362 128.865 215.779 131.341 224.134C133.82 232.498 134.344 241.653 130.119 249.527L131.881 250.473C136.456 241.947 135.813 232.186 133.259 223.566C130.702 214.938 126.188 207.304 122.793 202.89L121.207 204.11ZM130.119 249.527C125.863 257.458 118.165 262.962 110.16 266.615C102.162 270.265 93.9717 272.014 88.9037 272.505L89.0963 274.495C94.3616 273.986 102.771 272.185 110.99 268.435C119.201 264.688 127.337 258.942 131.881 250.473L130.119 249.527ZM89.1592 272.513C78.8544 270.851 63.458 267.685 50.7563 263.598C44.3976 261.552 38.7713 259.292 34.8034 256.903C32.8177 255.707 31.2989 254.509 30.3095 253.331C29.3241 252.157 28.9229 251.078 28.9973 250.074L27.0027 249.926C26.8771 251.622 27.5863 253.198 28.778 254.617C29.9657 256.031 31.6906 257.363 33.7716 258.616C37.937 261.124 43.7357 263.44 50.1437 265.502C62.9754 269.631 78.479 272.816 88.8408 274.487L89.1592 272.513ZM28.9973 250.074C29.2172 247.105 28.1389 243.673 26.3805 240.153C24.6103 236.609 22.0906 232.859 19.2793 229.214C13.6558 221.923 6.78774 214.956 2.17267 210.76L0.827327 212.24C5.37893 216.378 12.1609 223.26 17.6957 230.436C20.4636 234.024 22.9001 237.661 24.5913 241.047C26.2945 244.456 27.1828 247.495 27.0027 249.926L28.9973 250.074ZM2.5 211.5V192.5H0.5V211.5H2.5ZM33.7171 143.282C34.3933 149.298 34.5949 153.943 33.7974 157.798C33.0117 161.594 31.2475 164.66 27.8777 167.502L29.1669 169.031C32.8697 165.909 34.8768 162.451 35.7559 158.203C36.623 154.012 36.3826 149.091 35.7046 143.058L33.7171 143.282ZM27.8777 167.502C25.7138 169.326 23.2128 171.054 20.5906 172.804C17.9833 174.545 15.2467 176.313 12.6829 178.182C7.57065 181.909 2.92226 186.188 1.0499 191.891L2.9501 192.515C4.61405 187.446 8.80642 183.483 13.8611 179.798C16.3807 177.962 19.0591 176.231 21.701 174.468C24.328 172.714 26.9104 170.933 29.1669 169.031L27.8777 167.502ZM195.651 141.42C195.029 142.407 193.885 143.995 192.507 145.502C191.112 147.028 189.564 148.375 188.14 148.996L188.94 150.829C190.758 150.036 192.536 148.435 193.984 146.851C195.449 145.248 196.663 143.564 197.343 142.487L195.651 141.42ZM188.14 148.996C184.236 150.701 171.694 154.192 157.782 151.583L157.413 153.549C171.792 156.245 184.742 152.662 188.94 150.829L188.14 148.996ZM157.782 151.583C152.419 150.577 148.338 147.43 145.397 143.84C142.45 140.243 140.698 136.258 139.995 133.727L138.068 134.262C138.839 137.037 140.712 141.277 143.85 145.108C146.994 148.946 151.459 152.432 157.413 153.549L157.782 151.583ZM280.853 70.3214C280.106 70.9858 280.106 70.9858 280.106 70.9858C280.106 70.9859 280.106 70.9861 280.106 70.9863C280.107 70.9867 280.107 70.9873 280.108 70.9882C280.11 70.99 280.112 70.9928 280.115 70.9965C280.122 71.0039 280.132 71.0152 280.145 71.0302C280.172 71.0602 280.211 71.1051 280.263 71.1643C280.367 71.2827 280.521 71.4578 280.717 71.6838C281.11 72.1359 281.673 72.7913 282.357 73.6024C283.725 75.2251 285.57 77.4682 287.479 79.9513C289.39 82.4365 291.357 85.1508 292.973 87.7178C294.603 90.3052 295.827 92.6664 296.317 94.4619L298.246 93.9358C297.675 91.8401 296.315 89.2711 294.666 86.6519C293.003 84.0123 290.995 81.2436 289.064 78.7322C287.132 76.2188 285.267 73.9516 283.886 72.3134C283.196 71.4939 282.625 70.8311 282.227 70.3726C282.028 70.1433 281.872 69.965 281.765 69.8438C281.712 69.7832 281.671 69.7368 281.643 69.7055C281.63 69.6898 281.619 69.6778 281.612 69.6697C281.608 69.6657 281.606 69.6626 281.604 69.6605C281.603 69.6594 281.602 69.6586 281.601 69.658C281.601 69.6577 281.601 69.6575 281.601 69.6574C281.601 69.6572 281.601 69.6571 280.853 70.3214ZM296.317 94.4619C297.587 99.1192 297.173 104.025 296.619 109.125C296.072 114.158 295.382 119.407 296.298 124.446L298.265 124.088C297.413 119.398 298.049 114.478 298.607 109.341C299.158 104.271 299.629 99.0063 298.246 93.9358L296.317 94.4619ZM296.311 124.509C296.942 127.032 299.615 133.483 305.375 139.965L306.87 138.636C301.313 132.383 298.8 126.218 298.252 124.024L296.311 124.509ZM321.065 167.842C322.346 172.964 322.142 179.223 321.161 184.781C320.673 187.552 319.995 190.122 319.229 192.259C318.457 194.415 317.618 196.064 316.834 197.043L318.396 198.292C319.381 197.061 320.31 195.172 321.112 192.934C321.921 190.677 322.625 187.996 323.131 185.129C324.14 179.411 324.378 172.847 323.006 167.357L321.065 167.842ZM316.834 197.043C315.505 198.705 313.383 200.484 311.216 202.053C309.062 203.613 306.93 204.918 305.637 205.637L306.608 207.385C307.967 206.63 310.167 205.282 312.389 203.673C314.598 202.074 316.896 200.168 318.396 198.292L316.834 197.043ZM197.322 142.519C202.623 134.784 214.122 114.014 217.816 92.6001L215.845 92.2601C212.217 113.295 200.876 133.795 195.672 141.388L197.322 142.519ZM217.816 92.6001C221.515 71.153 216.389 50.9167 213.336 43.414L211.484 44.1678C214.429 51.4043 219.468 71.2584 215.845 92.2601L217.816 92.6001ZM214.159 43.3345C216.829 48.9745 221.671 57.9941 227.536 66.765C233.384 75.51 240.323 84.1213 247.208 88.8336L248.338 87.1831C241.785 82.6982 235.021 74.3594 229.199 65.6533C223.394 56.973 218.6 48.0403 215.966 42.4786L214.159 43.3345ZM247.208 88.8336C255.64 94.6044 261.261 97.3132 266.603 100.476C271.944 103.638 277.182 107.344 285.081 115.246L286.496 113.832C278.481 105.815 273.111 102.005 267.622 98.7549C262.134 95.5061 256.704 92.9089 248.338 87.1831L247.208 88.8336ZM218.136 264.876C217.949 264.974 217.756 265.075 217.558 265.179L218.491 266.948C218.686 266.845 218.877 266.745 219.061 266.649L218.136 264.876ZM217.558 265.179C214.053 267.028 208.892 269.913 204.255 272.86C201.938 274.333 199.737 275.83 197.936 277.226C196.16 278.602 194.682 279.948 193.897 281.126L195.561 282.235C196.151 281.349 197.401 280.171 199.161 278.807C200.895 277.463 203.038 276.003 205.328 274.548C209.907 271.638 215.018 268.78 218.491 266.948L217.558 265.179ZM193.896 281.126C193.112 282.303 192.357 284.118 191.649 286.204C190.933 288.312 190.241 290.778 189.604 293.309C188.329 298.372 187.263 303.747 186.671 307.156L188.641 307.498C189.227 304.127 190.283 298.801 191.543 293.797C192.173 291.295 192.851 288.886 193.543 286.847C194.242 284.785 194.93 283.181 195.561 282.235L193.896 281.126ZM81.3179 266.647C80.9162 267.563 80.9165 267.563 80.9169 267.563C80.9172 267.563 80.9177 267.563 80.9183 267.564C80.9196 267.564 80.9214 267.565 80.9237 267.566C80.9284 267.568 80.9353 267.571 80.9442 267.575C80.9622 267.583 80.9888 267.594 81.0238 267.609C81.0938 267.64 81.1976 267.685 81.3342 267.743C81.6075 267.86 82.0122 268.031 82.5402 268.251C83.5963 268.69 85.1463 269.321 87.1269 270.093C91.0879 271.638 96.7728 273.744 103.676 275.999C117.477 280.506 136.172 285.611 155.709 287.98L155.95 285.994C136.587 283.646 118.027 278.581 104.297 274.098C97.4345 271.857 91.7852 269.763 87.8533 268.23C85.8875 267.464 84.3514 266.838 83.308 266.404C82.7863 266.187 82.3879 266.018 82.1205 265.904C81.9868 265.847 81.8859 265.803 81.8188 265.774C81.7852 265.76 81.7601 265.749 81.7436 265.742C81.7353 265.738 81.7291 265.735 81.7252 265.734C81.7232 265.733 81.7217 265.732 81.7208 265.732C81.7203 265.731 81.7201 265.731 81.7198 265.731C81.7197 265.731 81.7197 265.731 81.3179 266.647ZM155.829 287.987H181.467V285.987H155.829V287.987ZM210.647 225.356C210.666 225.349 210.664 225.35 210.566 225.382C210.499 225.405 210.408 225.436 210.323 225.466C210.266 225.487 210.127 225.537 210.017 225.597C209.995 225.609 209.898 225.66 209.8 225.751C209.759 225.789 209.624 225.916 209.541 226.131C209.494 226.252 209.455 226.425 209.483 226.629C209.512 226.84 209.605 227.018 209.72 227.151C209.92 227.381 210.16 227.447 210.224 227.464C210.318 227.488 210.395 227.494 210.433 227.496C210.513 227.501 210.58 227.496 210.612 227.493L210.43 225.501C210.434 225.501 210.479 225.496 210.544 225.5C210.574 225.501 210.645 225.506 210.735 225.53C210.794 225.546 211.031 225.61 211.229 225.838C211.344 225.97 211.436 226.146 211.465 226.357C211.492 226.559 211.453 226.731 211.407 226.851C211.325 227.064 211.192 227.188 211.155 227.222C211.064 227.306 210.978 227.351 210.973 227.354C210.926 227.379 210.916 227.379 211.004 227.347C211.065 227.325 211.136 227.3 211.201 227.279C211.234 227.268 211.333 227.236 211.374 227.219L210.647 225.356ZM210.612 227.493C211.343 227.426 212.014 227.17 212.589 226.894C213.144 226.627 213.724 226.281 214.15 226.05L213.195 224.292C212.657 224.585 212.223 224.851 211.723 225.091C211.244 225.321 210.821 225.465 210.43 225.501L210.612 227.493ZM214.15 226.05C215.152 225.506 216.153 225.031 217.216 224.493L216.313 222.708C215.311 223.216 214.23 223.731 213.195 224.292L214.15 226.05ZM217.216 224.493C217.216 224.493 217.218 224.492 217.221 224.491C217.224 224.489 217.229 224.487 217.235 224.484C217.247 224.479 217.262 224.472 217.282 224.463C217.302 224.455 217.324 224.445 217.35 224.434C217.375 224.423 217.403 224.411 217.432 224.398C217.546 224.348 217.702 224.278 217.857 224.191C218.005 224.108 218.205 223.982 218.378 223.801C218.553 223.62 218.78 223.298 218.78 222.848H216.78C216.78 222.589 216.912 222.441 216.936 222.416C216.959 222.392 216.953 222.405 216.879 222.447C216.813 222.484 216.731 222.522 216.631 222.566C216.606 222.577 216.582 222.587 216.557 222.598C216.533 222.608 216.507 222.619 216.482 222.63C216.435 222.651 216.373 222.678 216.313 222.708L217.216 224.493ZM248.281 227.154C249.484 227.437 250.837 227.822 252.437 227.355L251.877 225.435C250.872 225.728 250.058 225.517 248.739 225.207L248.281 227.154ZM252.437 227.355C253.903 226.928 254.825 226.106 255.757 225.432L254.586 223.811C253.477 224.613 252.919 225.131 251.877 225.435L252.437 227.355ZM255.757 225.432C256.243 225.081 256.404 225.017 256.619 225.029L256.733 223.032C255.744 222.976 255.062 223.468 254.586 223.811L255.757 225.432ZM256.619 225.029C256.566 225.026 256.56 225.01 256.612 225.04C256.663 225.07 256.737 225.125 256.833 225.215C257.052 225.421 257.199 225.617 257.437 225.882L258.924 224.544C258.807 224.414 258.499 224.037 258.203 223.758C257.917 223.489 257.405 223.071 256.733 223.032L256.619 225.029ZM257.437 225.882C257.674 226.145 257.889 226.435 258.131 226.766C258.365 227.086 258.628 227.452 258.925 227.798L260.444 226.497C260.208 226.222 259.995 225.926 259.746 225.587C259.507 225.259 259.237 224.892 258.924 224.544L257.437 225.882ZM248.403 225.503C248.381 225.503 248.368 225.501 248.36 225.501C248.353 225.5 248.35 225.499 248.349 225.498C248.348 225.498 248.346 225.497 248.342 225.496C248.338 225.494 248.33 225.49 248.316 225.482C248.286 225.465 248.244 225.437 248.166 225.379C248.097 225.329 247.987 225.245 247.871 225.165L246.738 226.813C246.953 226.961 247.506 227.503 248.403 227.503V225.503ZM247.871 225.165C247.018 224.579 246 224.353 245.192 224.225L244.88 226.201C245.627 226.319 246.27 226.492 246.738 226.813L247.871 225.165ZM245.192 224.225C243.638 223.98 241.958 224.05 240.514 224.131L240.627 226.128C242.08 226.046 243.562 225.993 244.88 226.201L245.192 224.225ZM240.514 224.131C238.802 224.228 237.08 224.248 235.336 224.261C233.6 224.273 231.836 224.278 230.074 224.345L230.15 226.344C231.873 226.278 233.599 226.273 235.351 226.261C237.095 226.248 238.86 226.227 240.627 226.128L240.514 224.131ZM230.074 224.345C229.106 224.382 228.187 224.428 227.259 224.428V226.428C228.237 226.428 229.214 226.379 230.15 226.344L230.074 224.345ZM227.259 224.428C227.261 224.428 227.258 224.428 227.245 224.427C227.226 224.426 227.218 224.426 227.184 224.424C227.14 224.421 227.033 224.414 226.916 224.423C226.795 224.433 226.603 224.463 226.402 224.574C226.184 224.694 226.018 224.875 225.911 225.088L227.7 225.982C227.634 226.114 227.522 226.24 227.369 226.325C227.232 226.4 227.115 226.414 227.074 226.417C227.037 226.42 227.017 226.417 227.062 226.42C227.084 226.421 227.174 226.428 227.259 226.428V224.428ZM259.789 230.685C259.404 231.013 259.121 231.391 258.96 231.825C258.799 232.258 258.783 232.679 258.827 233.056C258.87 233.422 258.972 233.769 259.068 234.063C259.179 234.399 259.26 234.611 259.348 234.902L261.262 234.321C261.172 234.022 261.041 233.661 260.969 233.44C260.883 233.177 260.832 232.985 260.814 232.825C260.796 232.676 260.811 232.587 260.835 232.522C260.858 232.459 260.915 232.353 261.085 232.209L259.789 230.685ZM259.349 234.903L259.364 234.953L261.277 234.371L261.262 234.321L259.349 234.903ZM259.364 234.952C259.594 235.712 259.781 236.338 259.848 237.004L261.838 236.805C261.749 235.914 261.5 235.104 261.278 234.372L259.364 234.952ZM259.848 237.004C259.926 237.783 259.587 238.357 258.751 239.091L260.07 240.594C261.085 239.703 262.012 238.546 261.838 236.805L259.848 237.004ZM258.751 239.091C256.576 240.998 253.5 242.201 250.569 242.465L250.749 244.457C254.047 244.16 257.538 242.815 260.07 240.594L258.751 239.091ZM250.569 242.465C250.455 242.475 250.261 242.505 250.099 242.528C249.915 242.555 249.708 242.585 249.507 242.607C249.301 242.63 249.132 242.641 249.017 242.64C248.958 242.64 248.944 242.636 248.961 242.639C248.971 242.641 249.006 242.648 249.057 242.667C249.104 242.686 249.202 242.729 249.306 242.821L247.977 244.316C248.217 244.53 248.493 244.587 248.599 244.606C248.742 244.632 248.883 244.639 248.999 244.64C249.235 244.642 249.497 244.62 249.728 244.595C249.965 244.568 250.2 244.535 250.388 244.507C250.598 244.477 250.706 244.461 250.749 244.457L250.569 242.465ZM249.306 242.821C249.424 242.926 249.603 243.144 249.626 243.476C249.648 243.798 249.51 244.029 249.425 244.137C249.342 244.244 249.257 244.304 249.224 244.326C249.185 244.353 249.154 244.368 249.144 244.373C249.122 244.383 249.149 244.37 249.253 244.342C249.338 244.319 249.434 244.297 249.514 244.281C249.62 244.259 249.634 244.259 249.588 244.264L249.367 242.276C249.274 242.286 248.976 242.345 248.734 242.41C248.618 242.442 248.435 242.494 248.275 242.571C248.227 242.595 248.015 242.694 247.849 242.906C247.751 243.031 247.607 243.277 247.631 243.615C247.655 243.963 247.842 244.195 247.977 244.316L249.306 242.821ZM312.68 202.947C315.159 204.434 320.292 211.015 317.519 224.886L319.48 225.279C322.365 210.851 317.125 203.282 313.71 201.232L312.68 202.947ZM317.519 224.886C314.804 238.465 303.983 242.378 298.994 242.655L299.105 244.652C304.725 244.34 316.537 239.999 319.48 225.279L317.519 224.886ZM298.854 242.673C296.524 243.139 293.125 244.391 290.464 246.676C287.764 248.993 285.793 252.418 286.57 257.083L288.543 256.755C287.906 252.93 289.471 250.164 291.767 248.193C294.1 246.189 297.155 245.053 299.246 244.634L298.854 242.673ZM264.571 272.722C260.854 272.722 256.489 271.588 252.492 270.129C248.511 268.676 244.981 266.931 242.965 265.779L241.973 267.515C244.082 268.721 247.714 270.514 251.806 272.008C255.885 273.497 260.508 274.722 264.571 274.722V272.722ZM172.485 152.46C167.972 153.105 158.349 157.919 153.992 171.72L155.899 172.323C160.029 159.24 169.03 154.974 172.768 154.44L172.485 152.46ZM153.992 171.72C151.955 178.172 146.529 184.433 140.435 189.68C134.364 194.907 127.756 199.022 123.543 201.201L124.462 202.978C128.796 200.735 135.537 196.537 141.74 191.196C147.919 185.875 153.692 179.313 155.899 172.323L153.992 171.72ZM288.55 133.227C288.717 131.803 288.484 129.993 288.063 128.111C287.637 126.206 286.997 124.138 286.288 122.161C284.881 118.235 283.154 114.53 282.2 113.1L280.536 114.209C281.351 115.432 283.013 118.95 284.405 122.835C285.096 124.764 285.709 126.749 286.111 128.548C286.519 130.369 286.691 131.912 286.563 132.993L288.55 133.227ZM286.558 133.052C286.307 137.369 285.138 142.102 283.825 147.414C282.519 152.695 281.085 158.501 280.374 164.835L282.362 165.058C283.056 158.872 284.458 153.187 285.766 147.894C287.067 142.633 288.29 137.707 288.555 133.168L286.558 133.052ZM280.374 165.053C282.178 181.897 279.86 198.969 275.652 215.315L277.589 215.813C281.833 199.325 284.2 182 282.362 164.84L280.374 165.053ZM275.652 215.315C273.733 222.774 271.421 230.076 268.932 237.131L270.818 237.796C273.322 230.701 275.652 223.342 277.589 215.813L275.652 215.315ZM269.361 236.606C268.447 237.154 267.067 238.481 265.577 240.683C264.07 242.91 262.41 246.089 260.97 250.412L262.867 251.045C264.256 246.878 265.838 243.867 267.233 241.804C268.646 239.717 269.83 238.657 270.39 238.321L269.361 236.606ZM260.97 250.412C259.223 255.655 257.524 258.558 255.39 260.489C253.244 262.431 250.563 263.484 246.573 264.814L247.205 266.711C251.172 265.389 254.237 264.23 256.732 261.972C259.241 259.702 261.078 256.415 262.867 251.045L260.97 250.412ZM246.573 264.814C243.923 265.697 239.052 265.986 233.618 265.927C228.237 265.869 222.465 265.474 218.117 265.068L217.931 267.06C222.314 267.469 228.144 267.868 233.597 267.927C238.997 267.985 244.193 267.716 247.205 266.711L246.573 264.814ZM218.117 265.068C217.037 264.967 216.046 264.866 215.173 264.769L214.952 266.756C215.838 266.855 216.841 266.958 217.931 267.06L218.117 265.068ZM215.296 264.79C207.948 263.026 196.348 259.938 185.444 256.41C179.992 254.646 174.727 252.776 170.26 250.911C165.773 249.038 162.165 247.199 159.975 245.514L158.756 247.099C161.163 248.952 164.974 250.872 169.49 252.757C174.026 254.651 179.348 256.539 184.829 258.313C195.791 261.86 207.443 264.962 214.829 266.735L215.296 264.79ZM159.975 245.514C155.472 242.049 149.272 235.346 143.309 228.305C137.365 221.286 131.72 214.008 128.342 209.453L126.736 210.644C130.135 215.228 135.807 222.541 141.783 229.598C147.741 236.633 154.064 243.489 158.756 247.099L159.975 245.514ZM255.471 148.041C256.734 147.03 260.34 144.973 264.668 144.743L264.562 142.746C259.731 143.002 255.737 145.266 254.221 146.479L255.471 148.041ZM264.668 144.743C264.928 144.73 265.19 144.722 265.455 144.722V142.722C265.154 142.722 264.856 142.731 264.562 142.746L264.668 144.743ZM265.455 144.722C270.085 144.722 271.404 146.89 271.557 147.502L273.497 147.017C273.061 145.272 270.726 142.722 265.455 142.722V144.722ZM199.09 140.299C200.912 140.406 203.478 140.723 206.039 141.331L206.501 139.385C203.814 138.747 201.132 138.416 199.208 138.302L199.09 140.299ZM206.039 141.331C208.19 141.841 210.289 142.543 211.935 143.467C213.602 144.401 214.649 145.473 214.985 146.65L216.908 146.101C216.359 144.177 214.765 142.761 212.913 141.722C211.041 140.672 208.743 139.916 206.501 139.385L206.039 141.331ZM264.121 144.616L264.165 144.638L265.065 142.852L265.02 142.829L264.121 144.616ZM264.163 144.637C264.988 145.055 266.089 145.78 266.8 146.593C267.154 146.998 267.358 147.364 267.429 147.67C267.492 147.937 267.465 148.189 267.275 148.474L268.939 149.583C269.45 148.816 269.56 147.993 269.377 147.213C269.203 146.471 268.778 145.817 268.306 145.277C267.364 144.199 266.018 143.335 265.067 142.853L264.163 144.637ZM267.275 148.474C266.681 149.365 265.787 150.082 264.864 150.618C263.943 151.153 263.058 151.471 262.56 151.596L263.045 153.536C263.726 153.366 264.786 152.976 265.869 152.347C266.95 151.719 268.119 150.814 268.939 149.583L267.275 148.474ZM262.967 151.579L257.663 150.695L257.334 152.668L262.638 153.552L262.967 151.579ZM205.26 140.46C205.275 140.513 205.29 140.567 205.306 140.623L207.234 140.092C207.217 140.03 207.2 139.969 207.183 139.91L205.26 140.46ZM205.306 140.623C205.588 141.646 205.902 143.128 205.983 144.409C206.024 145.055 206.001 145.591 205.916 145.971C205.824 146.383 205.713 146.396 205.774 146.365L206.669 148.154C207.419 147.779 207.73 147.023 207.868 146.407C208.012 145.761 208.025 145.011 207.979 144.283C207.886 142.816 207.537 141.19 207.234 140.092L205.306 140.623ZM205.774 146.365C205.189 146.658 203.977 147.004 202.593 147.325C201.246 147.636 199.852 147.897 198.985 148.042L199.313 150.015C200.214 149.865 201.649 149.596 203.043 149.273C204.399 148.96 205.84 148.569 206.669 148.154L205.774 146.365ZM273.402 201.188C273.674 201.215 274.031 201.425 274.412 202.18C274.782 202.916 275.055 203.953 275.244 205.128C275.619 207.462 275.621 210.036 275.621 211.1L277.621 211.1C277.621 210.045 277.623 207.322 277.218 204.81C277.017 203.561 276.705 202.288 276.198 201.281C275.701 200.293 274.889 199.327 273.601 199.198L273.402 201.188ZM275.621 211.1V215.564H277.621V211.1H275.621ZM275.621 215.564V219.308H277.621V215.564H275.621ZM258.126 128.976L244.318 147.547L245.923 148.741L259.731 130.169L258.126 128.976ZM242.856 194.832C235.975 197.205 230.768 195.126 229.152 193.937L227.967 195.548C230.1 197.118 235.992 199.314 243.508 196.722L242.856 194.832ZM229.477 194.344C229.133 193.553 228.718 192.26 228.599 191.002C228.475 189.688 228.699 188.732 229.237 188.237L227.883 186.765C226.621 187.926 226.47 189.728 226.608 191.19C226.752 192.708 227.237 194.208 227.643 195.141L229.477 194.344ZM250.904 232.971C252.097 233.154 253.949 233.267 255.655 232.996C257.27 232.739 259.214 232.06 259.869 230.254L257.988 229.573C257.743 230.25 256.875 230.777 255.341 231.021C253.898 231.25 252.263 231.156 251.207 230.994L250.904 232.971ZM259.869 230.254C260.036 229.792 260.248 229.554 260.432 229.423C260.619 229.29 260.85 229.217 261.133 229.206C261.738 229.182 262.441 229.447 262.905 229.732L263.95 228.027C263.289 227.621 262.192 227.162 261.054 227.207C260.465 227.231 259.838 227.391 259.274 227.792C258.706 228.196 258.271 228.793 257.988 229.573L259.869 230.254ZM251.007 230.984C247.475 231.154 241.951 231.205 236.877 230.804C234.339 230.604 231.94 230.292 229.97 229.835C227.954 229.367 226.557 228.782 225.862 228.143L224.508 229.615C225.613 230.631 227.459 231.305 229.518 231.783C231.623 232.272 234.131 232.594 236.72 232.798C241.9 233.208 247.512 233.155 251.103 232.981L251.007 230.984ZM225.386 227.899C223.725 227.56 221.241 226.95 219.19 226.229C218.158 225.866 217.283 225.492 216.684 225.132C216.383 224.951 216.196 224.8 216.097 224.691C215.991 224.575 216.062 224.597 216.062 224.741H214.062C214.062 225.299 214.345 225.739 214.621 226.041C214.904 226.35 215.271 226.616 215.655 226.846C216.427 227.31 217.45 227.737 218.527 228.116C220.693 228.877 223.272 229.509 224.985 229.859L225.386 227.899ZM259.279 130.509C261.187 129.796 264.274 128.939 267.289 128.69C270.38 128.435 273.043 128.85 274.472 130.28L275.887 128.866C273.78 126.758 270.289 126.436 267.125 126.697C263.884 126.964 260.614 127.875 258.578 128.636L259.279 130.509ZM244.235 148.608C245.475 150.976 247.495 154.704 249.528 158.198C251.538 161.654 253.625 164.994 254.988 166.502L256.472 165.16C255.276 163.838 253.293 160.693 251.257 157.192C249.242 153.729 247.237 150.028 246.007 147.68L244.235 148.608ZM254.988 166.502C257.447 169.221 260.03 173.948 261.018 175.994L262.819 175.124C261.814 173.043 259.13 168.101 256.472 165.16L254.988 166.502ZM261.365 176.392C262.448 177.112 264.126 178.566 265.525 180.526C266.922 182.485 267.991 184.879 267.991 187.501H269.991C269.991 184.331 268.702 181.537 267.153 179.365C265.605 177.194 263.746 175.573 262.472 174.726L261.365 176.392ZM267.991 187.501C267.991 190.919 267.042 192.761 266.04 193.849C264.972 195.007 263.851 195.376 262.922 195.921L263.933 197.646C264.512 197.307 266.173 196.655 267.511 195.204C268.913 193.682 269.991 191.325 269.991 187.501H267.991ZM254.11 194.629C250.476 194.085 247.785 193.131 242.856 194.832L243.508 196.722C247.867 195.219 249.982 196.034 253.814 196.607L254.11 194.629ZM262.922 195.921C262.929 195.917 262.909 195.928 262.85 195.947C262.792 195.965 262.713 195.985 262.608 196.004C262.396 196.042 262.118 196.068 261.78 196.079C261.106 196.101 260.261 196.056 259.353 195.95C257.515 195.735 255.576 195.283 254.394 194.716L253.529 196.52C255 197.225 257.19 197.71 259.12 197.936C260.096 198.051 261.045 198.104 261.844 198.078C262.243 198.066 262.622 198.033 262.958 197.973C263.278 197.916 263.633 197.822 263.933 197.646L262.922 195.921ZM123.352 201.33C122.356 202.184 120.167 203.58 117.063 204.692L117.737 206.574C121.031 205.394 123.443 203.887 124.653 202.849L123.352 201.33ZM117.063 204.692C114.373 205.655 111.024 206.396 107.205 206.396V208.396C111.283 208.396 114.861 207.605 117.737 206.574L117.063 204.692ZM35.694 142.987C34.9026 138.735 34.3234 131.949 35.1566 125.469C35.9962 118.94 38.2301 113.009 42.7945 110.074L41.7127 108.392C36.3755 111.824 34.0323 118.532 33.173 125.214C32.3074 131.946 32.9076 138.946 33.7277 143.353L35.694 142.987ZM42.9608 109.94C43.5148 109.386 44.7747 108.565 46.5827 107.513C48.3566 106.482 50.5165 105.306 52.7993 104.025C57.3 101.499 62.2943 98.5594 65.0627 95.7902L63.6483 94.3762C61.1123 96.913 56.3818 99.7213 51.8206 102.281C49.5726 103.542 47.3673 104.743 45.5773 105.784C43.8214 106.806 42.3185 107.753 41.5464 108.526L42.9608 109.94ZM65.0627 95.7902C66.3476 94.5049 68.8956 92.3885 72.1513 89.6747C75.3833 86.9805 79.2645 83.736 83.1482 80.2397C87.0302 76.7448 90.9303 72.9843 94.1993 69.2531C97.457 65.5349 100.142 61.7856 101.531 58.3118L99.6741 57.5692C98.411 60.728 95.9021 64.2746 92.695 67.9352C89.4992 71.5828 85.6636 75.284 81.81 78.7533C77.958 82.2212 74.1035 85.4436 70.8707 88.1384C67.6616 90.8135 65.0156 93.0084 63.6483 94.3762L65.0627 95.7902ZM101.531 58.3118C104.103 51.8796 109.505 45.3671 115.427 39.8818C121.341 34.4045 127.674 30.0427 131.993 27.8827L131.098 26.0939C126.576 28.3557 120.09 32.8374 114.068 38.4144C108.056 43.9835 102.406 50.7362 99.6741 57.5692L101.531 58.3118ZM131.993 27.8827C134.054 26.8519 138 25.5579 143.106 24.2651C148.188 22.9787 154.347 21.7107 160.79 20.7147C173.729 18.7146 187.626 17.8415 196.254 19.9993L196.739 18.059C187.686 15.7951 173.437 16.736 160.485 18.7382C153.983 19.7433 147.761 21.0235 142.615 22.3263C137.494 23.6228 133.367 24.9592 131.098 26.0939L131.993 27.8827ZM196.254 19.9993C204.981 22.1817 219.669 28.5487 232.746 34.9609C239.27 38.1601 245.365 41.3566 250.078 44.0255C252.436 45.3604 254.439 46.5585 255.975 47.5556C257.542 48.5732 258.535 49.3274 258.951 49.7764L260.418 48.4177C259.811 47.7612 258.614 46.8849 257.064 45.8782C255.482 44.8509 253.44 43.6309 251.064 42.2851C246.308 39.5926 240.177 36.3776 233.626 33.1652C220.553 26.7544 205.694 20.2984 196.739 18.059L196.254 19.9993ZM258.951 49.7764C261.029 52.0208 264.806 55.3901 268.76 59.111C272.752 62.8671 276.973 67.0245 280.069 70.9414L281.638 69.7014C278.443 65.6592 274.127 61.4153 270.131 57.6544C266.096 53.8583 262.434 50.595 260.418 48.4177L258.951 49.7764ZM369.747 108.35C369.645 114.325 370.04 118.405 370.726 121.439C371.416 124.495 372.396 126.454 373.407 128.18C374.422 129.912 375.373 131.267 376.175 133.307C376.968 135.322 377.612 138.018 377.863 142.283L379.86 142.166C379.6 137.746 378.924 134.832 378.036 132.575C377.158 130.343 376.069 128.766 375.132 127.169C374.193 125.566 373.31 123.8 372.676 120.998C372.038 118.174 371.647 114.266 371.746 108.384L369.747 108.35ZM377.862 142.239C378.215 165.663 382.346 182.129 387.686 194.627C393.017 207.106 399.551 215.605 404.576 222.992L406.23 221.867C401.145 214.393 394.76 206.095 389.525 193.841C384.297 181.605 380.212 165.399 379.862 142.209L377.862 142.239ZM404.576 222.992C408.597 228.903 411.415 233.258 413.589 236.164C414.68 237.621 415.647 238.769 416.564 239.59C417.481 240.412 418.416 240.97 419.442 241.132L419.754 239.156C419.256 239.077 418.665 238.787 417.899 238.1C417.131 237.413 416.257 236.391 415.191 234.966C413.052 232.107 410.296 227.845 406.23 221.867L404.576 222.992ZM419.34 241.11C419.817 241.237 420.463 241.287 421.183 241.293C421.924 241.298 422.815 241.256 423.818 241.166C425.825 240.987 428.319 240.617 431.021 240.039C436.411 238.888 442.722 236.896 447.678 233.897L446.643 232.186C441.954 235.023 435.884 236.956 430.603 238.084C427.971 238.646 425.557 239.003 423.641 239.174C422.682 239.26 421.857 239.297 421.198 239.293C420.518 239.288 420.08 239.237 419.856 239.178L419.34 241.11ZM447.678 233.897C450.674 232.085 455.862 229.189 462.059 225.712C468.246 222.241 475.418 218.2 482.355 214.113C489.288 210.027 496.002 205.884 501.267 202.207C503.899 200.37 506.185 198.637 507.961 197.077C509.711 195.54 511.06 194.091 511.706 192.813L509.922 191.91C509.46 192.822 508.366 194.059 506.642 195.574C504.943 197.066 502.724 198.751 500.122 200.568C494.921 204.2 488.259 208.312 481.339 212.39C474.423 216.465 467.267 220.497 461.08 223.968C454.904 227.433 449.675 230.352 446.643 232.186L447.678 233.897ZM499.194 29.6356C487.024 24.983 470.406 25.0627 453.48 27.0001C436.52 28.9413 419.076 32.7719 405.193 35.7449L405.612 37.7006C419.52 34.7222 436.863 30.9151 453.707 28.9871C470.585 27.0553 486.789 27.0342 498.48 31.5038L499.194 29.6356ZM423.65 106.726C423.845 104.317 425.661 98.5941 431.311 95.5487L430.362 93.7881C423.945 97.2469 421.889 103.699 421.657 106.565L423.65 106.726ZM431.311 95.5487C434.17 94.0079 438.949 92.8338 443.875 92.0027C448.764 91.1778 453.663 90.7117 456.671 90.5359L456.554 88.5393C453.484 88.7187 448.513 89.1919 443.542 90.0306C438.607 90.8631 433.538 92.0768 430.362 93.7881L431.311 95.5487ZM456.376 90.5091L465.534 92.7415L466.007 90.7983L456.849 88.566L456.376 90.5091ZM374.082 89.2036C371.507 96.4721 369.834 103.215 369.747 108.35L371.746 108.384C371.828 103.579 373.413 97.0807 375.967 89.8716L374.082 89.2036ZM404.76 35.9566C401.034 39.0822 396.269 45.4668 391.496 53.242L393.2 54.2884C397.963 46.5305 402.586 40.3904 406.046 37.4889L404.76 35.9566ZM521.062 39.6427C515.439 36.1918 508.316 33.1227 499.194 29.6356L498.48 31.5038C507.587 34.9853 514.562 38 520.016 41.3473L521.062 39.6427ZM511.706 192.813C513.166 189.928 514.473 185.175 515.825 180.597C517.208 175.917 518.641 171.408 520.346 168.708L518.654 167.64C516.771 170.622 515.268 175.427 513.907 180.03C512.517 184.735 511.275 189.235 509.922 191.91L511.706 192.813ZM519.976 41.3212L523.512 43.7328L524.639 42.0804L521.102 39.6688L519.976 41.3212ZM524.619 43.7461C532.18 38.8518 538.429 33.8047 544.283 29.2075C550.152 24.5989 555.614 20.4507 561.672 17.2609L560.741 15.4912C554.503 18.7751 548.914 23.0283 543.048 27.6346C537.168 32.2523 531 37.2336 523.532 42.0671L524.619 43.7461ZM561.672 17.2609C570.167 12.7886 582.785 4.73246 597.928 2.55299C612.956 0.389943 630.54 4.02605 648.891 23.2568L650.338 21.8761C631.557 2.19554 613.336 -1.68531 597.643 0.573394C582.064 2.81568 569.043 11.12 560.741 15.4912L561.672 17.2609ZM648.891 23.2568C667.235 42.4807 676.702 73.6152 680.893 102.963C685.082 132.297 683.965 159.578 681.351 170.912L683.299 171.362C685.989 159.703 687.082 132.154 682.873 102.68C678.665 73.2179 669.124 41.5636 650.338 21.8761L648.891 23.2568ZM681.351 170.912C680.056 176.526 677.568 181.679 674.739 187.09C671.924 192.475 668.765 198.124 666.253 204.602C661.197 217.639 658.761 234.008 666.339 258.978L668.253 258.397C660.801 233.843 663.228 217.934 668.117 205.325C670.578 198.98 673.663 193.464 676.512 188.016C679.346 182.594 681.942 177.245 683.299 171.362L681.351 170.912ZM666.339 258.978C678.36 298.59 689.026 335.609 692.856 349.163L694.78 348.619C690.948 335.054 680.278 298.023 668.253 258.397L666.339 258.978ZM693.857 347.892L557.709 342.586L557.631 344.584L693.779 349.891L693.857 347.892ZM530.429 220.518C529.093 214.949 527.424 209.72 525.808 204.719C524.189 199.706 522.627 194.936 521.477 190.225C519.184 180.832 518.555 171.774 522.431 161.864L520.569 161.136C516.489 171.566 517.185 181.079 519.534 190.7C520.705 195.496 522.292 200.343 523.905 205.334C525.522 210.337 527.168 215.499 528.484 220.985L530.429 220.518ZM522.431 161.864C526.355 151.834 531.503 146.471 535.218 141.014C537.067 138.298 538.548 135.56 539.2 132.268C539.852 128.972 539.656 125.209 538.298 120.455L536.375 121.004C537.669 125.535 537.814 128.968 537.238 131.88C536.661 134.796 535.343 137.276 533.564 139.889C530.024 145.089 524.602 150.826 520.569 161.136L522.431 161.864ZM538.298 120.455C536.943 115.71 535.245 112.371 533.642 109.614C532.015 106.816 530.602 104.789 529.642 102.443C527.804 97.9482 527.682 92.291 532.965 78.6414L531.099 77.9196C525.772 91.6849 525.651 97.9664 527.791 103.2C528.821 105.717 530.391 108.002 531.913 110.62C533.46 113.28 535.078 116.463 536.375 121.004L538.298 120.455ZM532.965 78.6414C541.449 56.716 547.075 46.0159 548.777 43.4611L547.113 42.3519C545.28 45.1032 539.589 55.9812 531.099 77.9196L532.965 78.6414ZM358.701 78.6104C357.15 76.2837 354.222 73.2481 350.419 71.7154C346.542 70.153 341.818 70.1857 336.925 73.9507L338.145 75.5357C342.446 72.2259 346.416 72.2586 349.671 73.5704C352.999 74.9118 355.64 77.6244 357.037 79.7195L358.701 78.6104ZM336.925 73.9507C334.094 76.1292 331.979 77.4304 330.356 78.3503C328.791 79.2376 327.499 79.8617 326.547 80.5759C324.426 82.167 323.719 84.3528 322.412 90.4521L324.368 90.871C325.713 84.5894 326.332 83.2378 327.747 82.1758C328.564 81.5634 329.593 81.0821 331.342 80.0902C333.035 79.1308 335.23 77.7789 338.145 75.5357L336.925 73.9507ZM322.412 90.4521C319.787 102.706 314.418 112.666 317.09 139.4L319.08 139.201C316.449 112.874 321.688 103.379 324.368 90.871L322.412 90.4521ZM272.926 303.201C282.172 333.082 301.647 361.26 310.243 371.638L311.783 370.362C303.287 360.105 283.98 332.157 274.837 302.609L272.926 303.201ZM311.013 372H401.189V370H311.013V372ZM402.172 371.182C403.65 363.198 405.6 350.43 406.65 338.054C407.174 331.866 407.475 325.76 407.377 320.391C407.279 315.044 406.784 310.343 405.674 307.011L403.776 307.643C404.788 310.678 405.28 315.13 405.377 320.428C405.474 325.704 405.178 331.736 404.657 337.885C403.614 350.182 401.674 362.884 400.205 370.818L402.172 371.182ZM405.674 307.011C403.014 299.03 401.461 295.034 399.801 290.718C398.147 286.417 396.385 281.789 393.297 272.521L391.399 273.153C394.499 282.457 396.273 287.115 397.935 291.436C399.59 295.742 401.131 299.705 403.776 307.643L405.674 307.011ZM393.297 272.521C390.878 265.263 390.358 256.046 390.717 247.41C391.075 238.789 392.305 230.844 393.325 226.18L391.371 225.753C390.328 230.523 389.082 238.584 388.719 247.326C388.356 256.052 388.867 265.554 391.399 273.153L393.297 272.521ZM393.306 226.254L395.958 217.411L394.042 216.836L391.39 225.68L393.306 226.254ZM375.666 116.308C375.666 116.521 375.593 116.666 375.573 116.705C375.545 116.757 375.523 116.782 375.528 116.776C375.537 116.765 375.585 116.712 375.701 116.614C375.928 116.42 376.328 116.125 376.973 115.713C378.258 114.892 380.433 113.657 383.954 111.896L383.06 110.107C379.508 111.884 377.264 113.154 375.896 114.028C375.215 114.463 374.731 114.813 374.405 115.09C374.245 115.226 374.099 115.365 373.984 115.504C373.927 115.574 373.86 115.664 373.803 115.772C373.753 115.867 373.666 116.058 373.666 116.308H375.666ZM383.954 111.896C387.133 110.306 390.937 110.729 394.546 112.051C398.136 113.367 401.351 115.511 403.195 117.071L404.487 115.544C402.5 113.862 399.084 111.584 395.234 110.173C391.401 108.769 386.954 108.16 383.06 110.107L383.954 111.896ZM403.469 117.236C403.608 117.292 403.867 117.468 404.176 117.88C404.476 118.28 404.783 118.85 405.039 119.595C405.55 121.083 405.838 123.212 405.501 125.912L407.485 126.16C407.855 123.199 407.554 120.759 406.93 118.945C406.619 118.04 406.223 117.276 405.776 116.681C405.339 116.098 404.81 115.618 404.212 115.379L403.469 117.236ZM405.501 125.912C405.169 128.566 403.246 133.966 400.356 139.879C397.481 145.763 393.727 151.994 389.836 156.319L391.323 157.657C395.389 153.138 399.238 146.723 402.153 140.757C405.055 134.819 407.11 129.165 407.485 126.16L405.501 125.912ZM389.836 156.319C389.019 157.228 388.721 158.44 388.689 159.659C388.657 160.887 388.888 162.238 389.25 163.564C389.975 166.218 391.277 168.961 392.374 170.79L394.09 169.762C393.065 168.054 391.847 165.479 391.18 163.037C390.846 161.815 390.663 160.672 390.688 159.712C390.714 158.744 390.947 158.075 391.323 157.657L389.836 156.319ZM392.374 170.79C393.418 172.53 394.341 174.448 395.244 176.15C395.686 176.982 396.124 177.765 396.556 178.403C396.97 179.014 397.455 179.613 398.022 179.954L399.051 178.239C398.882 178.137 398.6 177.855 398.213 177.282C397.843 176.736 397.446 176.032 397.011 175.212C396.16 173.609 395.168 171.559 394.09 169.762L392.374 170.79ZM419.777 48.3281C426.163 48.1829 436.341 49.1441 446.038 52.4962C455.749 55.853 464.814 61.5477 469.246 70.7551L471.048 69.8877C466.285 59.9931 456.637 54.044 446.692 50.606C436.733 47.1633 426.312 46.179 419.732 46.3286L419.777 48.3281ZM469.246 70.7551C480.642 94.433 482.404 124.276 485.065 150.897L487.055 150.698C484.412 124.258 482.637 93.9647 471.048 69.8877L469.246 70.7551ZM485.065 150.897C486.105 161.305 483.722 172.497 480.276 182.302C476.834 192.099 472.361 200.428 469.31 205.078L470.983 206.176C474.12 201.393 478.666 192.919 482.163 182.965C485.658 173.02 488.136 161.514 487.055 150.698L485.065 150.897ZM470.928 206.252C478.012 197.393 488.639 183.398 497.499 170.191C501.929 163.59 505.929 157.167 508.825 151.673C510.274 148.926 511.455 146.394 512.277 144.176C513.092 141.977 513.582 140.009 513.582 138.416H511.582C511.582 139.654 511.189 141.356 510.401 143.482C509.621 145.589 508.481 148.037 507.056 150.74C504.207 156.145 500.25 162.502 495.838 169.077C487.018 182.224 476.426 196.174 469.366 205.002L470.928 206.252ZM513.582 138.416C513.582 132.657 511.796 120.038 509.591 106.704C507.378 93.3307 504.724 79.1266 502.955 70.1284L500.992 70.5144C502.759 79.498 505.409 93.6816 507.617 107.03C509.832 120.419 511.582 132.857 511.582 138.416H513.582ZM502.665 69.5995C495.551 62.7793 483.684 52.9971 471.176 45.7984C464.922 42.1991 458.472 39.2254 452.351 37.6013C446.24 35.9796 440.362 35.6792 435.32 37.5472L436.015 39.4226C440.521 37.7532 445.938 37.9687 451.838 39.5344C457.73 41.0976 464.011 43.9827 470.178 47.5318C482.512 54.6301 494.251 64.3036 501.281 71.0433L502.665 69.5995ZM438.615 110.464C438.043 111.002 437.46 111.573 436.938 111.991L438.188 113.552C438.792 113.068 439.465 112.41 439.986 111.92L438.615 110.464ZM436.938 111.991C436.821 112.084 436.665 112.215 436.551 112.359C436.519 112.401 436.466 112.473 436.42 112.57C436.381 112.651 436.294 112.853 436.321 113.121C436.354 113.459 436.55 113.739 436.814 113.895C437.024 114.019 437.221 114.035 437.303 114.038C437.474 114.045 437.616 114.009 437.665 113.996C437.737 113.977 437.805 113.954 437.862 113.933C437.976 113.891 438.101 113.838 438.221 113.783C438.68 113.575 439.321 113.235 439.525 113.104L438.443 111.421C438.444 111.421 438.442 111.422 438.435 111.427C438.428 111.431 438.419 111.436 438.407 111.443C438.383 111.457 438.352 111.475 438.314 111.496C438.24 111.537 438.145 111.588 438.04 111.643C437.829 111.754 437.589 111.874 437.394 111.962C437.294 112.007 437.22 112.038 437.174 112.055C437.15 112.064 437.147 112.064 437.16 112.061C437.167 112.059 437.187 112.054 437.216 112.049C437.241 112.045 437.302 112.037 437.383 112.04C437.448 112.043 437.633 112.055 437.833 112.174C438.089 112.325 438.279 112.597 438.311 112.925C438.337 113.182 438.253 113.372 438.222 113.437C438.183 113.518 438.143 113.571 438.127 113.592C438.08 113.651 438.067 113.649 438.188 113.552L436.938 111.991ZM439.525 113.104C440.844 112.255 441.634 111.621 443.002 111.019L442.197 109.188C440.637 109.874 439.609 110.671 438.443 111.421L439.525 113.104ZM443.002 111.019C444.266 110.462 445.448 109.919 446.625 109.658L446.191 107.705C444.777 108.019 443.388 108.664 442.197 109.188L443.002 111.019ZM446.625 109.658C447.138 109.543 447.694 109.394 448.254 109.223L447.672 107.31C447.149 107.469 446.644 107.604 446.191 107.705L446.625 109.658ZM448.254 109.223C448.572 109.127 448.894 109.023 449.212 108.914L448.566 107.021C448.268 107.123 447.968 107.22 447.672 107.31L448.254 109.223ZM449.212 108.914C449.984 108.65 450.744 108.357 451.394 108.068L450.582 106.24C449.995 106.501 449.292 106.773 448.566 107.021L449.212 108.914ZM451.394 108.068C451.694 107.934 452.271 107.892 453.107 107.935C453.498 107.956 453.89 107.991 454.286 108.023C454.668 108.054 455.064 108.084 455.41 108.084V106.084C455.157 106.084 454.837 106.061 454.448 106.03C454.073 105.999 453.64 105.961 453.212 105.938C452.408 105.896 451.374 105.888 450.582 106.24L451.394 108.068ZM455.41 108.084C455.77 108.084 456.577 108.076 457.346 108.128C457.733 108.155 458.075 108.194 458.327 108.248C458.454 108.275 458.529 108.3 458.564 108.314C458.618 108.337 458.523 108.312 458.42 108.182L459.982 106.933C459.777 106.677 459.509 106.542 459.336 106.469C459.144 106.389 458.937 106.333 458.744 106.292C458.355 106.209 457.905 106.162 457.482 106.133C456.63 106.075 455.745 106.084 455.41 106.084V108.084ZM458.42 108.182C458.536 108.327 458.667 108.419 458.742 108.468C458.828 108.524 458.917 108.571 458.997 108.609C459.156 108.686 459.341 108.758 459.528 108.824C459.905 108.957 460.367 109.092 460.823 109.212C461.281 109.332 461.749 109.441 462.143 109.521C462.496 109.593 462.894 109.664 463.15 109.664V107.664C463.163 107.664 463.119 107.663 462.986 107.642C462.869 107.624 462.718 107.597 462.541 107.561C462.187 107.489 461.756 107.389 461.331 107.277C460.903 107.165 460.499 107.046 460.194 106.938C460.04 106.884 459.931 106.839 459.863 106.806C459.83 106.79 459.822 106.784 459.831 106.79C459.836 106.794 459.852 106.804 459.875 106.824C459.897 106.841 459.937 106.877 459.982 106.933L458.42 108.182ZM463.15 109.664C463.071 109.664 463.069 109.65 463.207 109.69C463.317 109.723 463.464 109.775 463.646 109.846C464.006 109.987 464.45 110.184 464.896 110.398C465.342 110.611 465.776 110.835 466.118 111.026C466.29 111.122 466.43 111.205 466.533 111.271C466.657 111.351 466.669 111.37 466.637 111.337L468.051 109.923C467.918 109.79 467.743 109.671 467.614 109.589C467.464 109.492 467.286 109.387 467.094 109.28C466.708 109.065 466.236 108.822 465.76 108.594C465.286 108.367 464.795 108.148 464.374 107.983C464.164 107.901 463.959 107.828 463.776 107.773C463.62 107.727 463.383 107.664 463.15 107.664V109.664ZM466.637 111.337C466.857 111.557 467.629 112.205 468.155 112.618C468.292 112.725 468.424 112.825 468.535 112.905C468.59 112.945 468.648 112.985 468.703 113.02C468.738 113.042 468.842 113.109 468.967 113.156C469.004 113.17 469.069 113.192 469.152 113.207C469.22 113.219 469.391 113.244 469.598 113.188C469.852 113.119 470.13 112.931 470.266 112.598C470.377 112.325 470.337 112.089 470.316 111.995C470.274 111.807 470.187 111.675 470.171 111.649C470.138 111.598 470.104 111.555 470.08 111.525C469.992 111.414 469.858 111.274 469.701 111.117L468.286 112.531C468.361 112.605 468.417 112.663 468.458 112.706C468.478 112.728 468.493 112.745 468.504 112.757C468.516 112.77 468.52 112.775 468.519 112.774C468.518 112.774 468.515 112.77 468.51 112.763C468.506 112.757 468.497 112.745 468.486 112.728C468.484 112.724 468.404 112.607 468.364 112.431C468.345 112.342 468.305 112.11 468.415 111.841C468.55 111.511 468.825 111.325 469.075 111.257C469.278 111.202 469.443 111.227 469.506 111.238C469.582 111.252 469.64 111.272 469.668 111.283C469.759 111.317 469.811 111.354 469.778 111.333C469.766 111.326 469.741 111.309 469.702 111.281C469.623 111.224 469.516 111.143 469.389 111.044C468.861 110.63 468.176 110.048 468.051 109.923L466.637 111.337ZM449.142 106.956C449.025 106.956 448.909 106.961 448.795 106.972L448.982 108.963C449.032 108.959 449.085 108.956 449.142 108.956V106.956ZM448.795 106.972C448.299 107.019 447.843 107.167 447.44 107.414L448.485 109.119C448.612 109.041 448.772 108.983 448.982 108.963L448.795 106.972ZM447.44 107.414C446.326 108.097 445.849 109.367 445.714 110.602C445.577 111.867 445.766 113.307 446.197 114.661C446.629 116.016 447.324 117.354 448.26 118.39C449.198 119.427 450.434 120.216 451.92 120.304L452.037 118.307C451.227 118.259 450.447 117.826 449.744 117.048C449.039 116.269 448.468 115.201 448.103 114.054C447.738 112.907 447.601 111.75 447.703 110.819C447.807 109.858 448.135 109.334 448.485 109.119L447.44 107.414ZM451.92 120.304C453.654 120.406 455.258 120.501 456.761 120.224C458.319 119.937 459.739 119.261 461.174 117.904L459.801 116.45C458.635 117.552 457.564 118.043 456.399 118.257C455.179 118.482 453.83 118.413 452.037 118.307L451.92 120.304ZM461.174 117.904C463.444 115.76 464.925 112.101 462.738 108.82L461.074 109.929C462.508 112.081 461.682 114.673 459.801 116.45L461.174 117.904ZM382.776 130.655C382.776 127.642 384.282 124.698 386.604 122.486C388.928 120.272 391.97 118.887 394.895 118.887V116.887C391.363 116.887 387.846 118.54 385.225 121.038C382.601 123.537 380.776 126.977 380.776 130.655H382.776ZM394.895 118.887C396.775 118.887 398.948 119.758 400.658 121.194C402.368 122.631 403.468 124.502 403.468 126.399H405.468C405.468 123.723 403.94 121.339 401.944 119.663C399.946 117.985 397.332 116.887 394.895 116.887V118.887ZM388.576 123.561C388.576 124.675 388.888 125.943 389.47 127.04C390.049 128.131 390.959 129.167 392.232 129.625L392.909 127.743C392.262 127.51 391.675 126.928 391.237 126.103C390.802 125.283 390.576 124.335 390.576 123.561H388.576ZM392.232 129.625C392.642 129.773 393.249 129.904 393.865 130.019C394.501 130.138 395.223 130.255 395.898 130.364C396.581 130.474 397.21 130.575 397.687 130.668C397.927 130.714 398.108 130.754 398.228 130.787C398.257 130.795 398.279 130.802 398.295 130.807C398.312 130.812 398.318 130.815 398.317 130.814C398.315 130.814 398.311 130.812 398.303 130.808C398.296 130.805 398.283 130.799 398.267 130.79C398.243 130.776 398.169 130.734 398.088 130.652L399.502 129.238C399.328 129.065 399.125 128.984 399.061 128.958C398.961 128.918 398.855 128.885 398.758 128.859C398.563 128.805 398.322 128.753 398.067 128.704C397.552 128.605 396.888 128.498 396.216 128.389C395.535 128.28 394.84 128.167 394.234 128.054C393.608 127.936 393.149 127.83 392.909 127.743L392.232 129.625ZM409.556 167.257C409.474 167.247 409.404 167.239 409.35 167.233C409.323 167.23 409.291 167.227 409.259 167.225C409.257 167.225 409.157 167.217 409.045 167.231C409.013 167.235 408.931 167.246 408.832 167.282C408.787 167.298 408.454 167.41 408.271 167.781C408.019 168.29 408.279 168.718 408.391 168.856C408.501 168.991 408.619 169.063 408.65 169.082C408.734 169.132 408.807 169.16 408.823 169.165C408.851 169.176 408.876 169.184 408.891 169.189C408.944 169.206 409.007 169.222 409.052 169.233C409.265 169.286 409.626 169.369 410.093 169.495C411.065 169.757 412.198 170.134 412.787 170.558L413.955 168.935C413.03 168.269 411.553 167.817 410.614 167.564C410.125 167.432 409.705 167.334 409.536 167.292C409.485 167.279 409.477 167.277 409.488 167.28C409.493 167.282 409.509 167.287 409.531 167.295C409.539 167.298 409.607 167.323 409.688 167.372C409.718 167.39 409.834 167.461 409.943 167.595C410.055 167.733 410.315 168.16 410.063 168.668C409.88 169.038 409.548 169.15 409.505 169.165C409.407 169.2 409.327 169.211 409.297 169.215C409.23 169.224 409.178 169.223 409.168 169.223C409.15 169.222 409.138 169.222 409.134 169.221C409.128 169.221 409.13 169.221 409.146 169.223C409.177 169.226 409.228 169.232 409.307 169.242L409.556 167.257ZM412.787 170.558C413.838 171.315 415.032 172.052 416.171 172.968C417.302 173.879 418.116 174.777 418.41 175.659L420.308 175.027C419.821 173.567 418.609 172.364 417.425 171.41C416.248 170.463 414.839 169.572 413.955 168.935L412.787 170.558ZM411.529 169.473C411.516 169.352 411.503 169.255 411.492 169.18C411.487 169.143 411.48 169.104 411.473 169.067C411.471 169.06 411.453 168.957 411.409 168.849C411.397 168.82 411.362 168.735 411.294 168.641C411.275 168.615 411.016 168.23 410.492 168.224C409.883 168.218 409.625 168.701 409.593 168.763C409.528 168.888 409.506 168.996 409.499 169.028C409.474 169.154 409.478 169.268 409.478 169.269C409.479 169.336 409.484 169.41 409.49 169.475C409.513 169.718 409.583 170.233 409.742 170.64L411.605 169.912C411.55 169.773 411.5 169.484 411.482 169.288C411.477 169.243 411.478 169.23 411.478 169.243C411.478 169.247 411.478 169.262 411.477 169.282C411.477 169.291 411.475 169.351 411.459 169.428C411.453 169.457 411.431 169.564 411.367 169.687C411.335 169.748 411.078 170.231 410.47 170.224C409.947 170.219 409.688 169.834 409.671 169.81C409.604 169.717 409.569 169.634 409.559 169.608C409.532 169.543 409.52 169.493 409.518 169.484C409.513 169.467 409.511 169.455 409.511 169.453C409.51 169.449 409.511 169.454 409.514 169.475C409.52 169.515 409.529 169.585 409.541 169.694L411.529 169.473ZM409.742 170.64C409.985 171.26 410.089 171.591 410.089 172.077H412.089C412.089 171.2 411.866 170.579 411.605 169.912L409.742 170.64ZM528.539 220.355C526.142 225.899 523.277 235.681 521.099 246.711C518.921 257.748 517.414 270.114 517.771 280.83L519.77 280.763C519.42 270.255 520.899 258.052 523.061 247.099C525.225 236.139 528.056 226.511 530.375 221.148L528.539 220.355ZM517.771 280.83C517.996 287.576 519.292 292.48 521.236 296.298C523.182 300.118 525.744 302.786 528.391 305.096C533.728 309.753 539.144 312.836 541.687 320.893L543.594 320.291C540.834 311.546 534.757 307.996 529.706 303.589C527.159 301.366 524.803 298.894 523.019 295.39C521.234 291.885 519.987 287.282 519.77 280.763L517.771 280.83ZM541.687 320.893C545.994 334.535 553.673 342.226 557.133 344.429L558.207 342.742C555.184 340.817 547.775 333.533 543.594 320.291L541.687 320.893ZM392.809 59.6874C389.311 61.3204 385.554 64.5342 381.945 68.76C378.325 72.9998 374.801 78.318 371.786 84.2383C365.765 96.0604 361.71 110.407 363.063 123.485L365.052 123.28C363.752 110.711 367.654 96.7591 373.568 85.1459C376.521 79.3486 379.959 74.1651 383.466 70.0588C386.985 65.9385 390.522 62.962 393.655 61.4997L392.809 59.6874ZM363.063 123.485C364.516 137.537 364.732 149.62 365.367 159.648C365.996 169.587 367.036 177.598 370.266 183.138L371.994 182.13C369.036 177.058 367.995 169.517 367.363 159.521C366.736 149.613 366.51 137.376 365.052 123.28L363.063 123.485ZM370.266 183.138C372.694 187.301 375.542 194.156 378.128 201.09C380.706 208.005 382.999 214.929 384.32 219.188L386.23 218.596C384.899 214.306 382.595 207.346 380.002 200.391C377.415 193.456 374.517 186.456 371.994 182.13L370.266 183.138ZM384.291 219.071C384.833 222.051 384.478 230.374 378.287 238.632L379.887 239.832C386.426 231.111 386.896 222.219 386.259 218.713L384.291 219.071ZM380.081 239.129C379.632 234.787 378.336 227.726 375.9 220.581C373.472 213.458 369.869 206.123 364.738 201.357L363.377 202.822C368.147 207.253 371.617 214.215 374.007 221.227C376.39 228.217 377.657 235.129 378.092 239.335L380.081 239.129ZM364.738 201.357C352.615 190.096 344.705 169.153 342.065 146.261L340.078 146.49C342.742 169.584 350.746 191.09 363.377 202.822L364.738 201.357ZM342.065 146.261C340.764 134.986 343.803 119.236 348.977 104.479C354.154 89.7157 361.386 76.1763 368.301 69.2597L366.887 67.8457C359.656 75.0787 352.301 88.9542 347.09 103.817C341.877 118.685 338.726 134.772 340.078 146.49L342.065 146.261ZM368.301 69.2597C373.95 63.6092 380.039 59.9097 384.72 57.623C387.059 56.4804 389.041 55.6928 390.434 55.1922C391.131 54.9419 391.68 54.7636 392.051 54.6485C392.237 54.591 392.379 54.5493 392.472 54.5224C392.519 54.509 392.554 54.4992 392.576 54.493C392.587 54.4899 392.596 54.4877 392.6 54.4864C392.603 54.4857 392.605 54.4853 392.605 54.485C392.606 54.4849 392.606 54.4849 392.606 54.4848C392.606 54.4848 392.606 54.4849 392.606 54.4849C392.606 54.4849 392.606 54.485 392.348 53.5188C392.09 52.5526 392.09 52.5526 392.089 52.5527C392.089 52.5528 392.089 52.5529 392.088 52.553C392.088 52.5532 392.087 52.5535 392.085 52.5538C392.083 52.5544 392.08 52.5553 392.076 52.5564C392.068 52.5585 392.057 52.5616 392.043 52.5655C392.014 52.5734 391.973 52.5849 391.92 52.6002C391.814 52.6307 391.659 52.6763 391.46 52.7379C391.062 52.8612 390.484 53.049 389.758 53.31C388.306 53.8319 386.255 54.6472 383.842 55.826C379.019 58.1822 372.731 61.9997 366.887 67.8457L368.301 69.2597ZM393.646 61.5039L403.371 57.0821L402.543 55.2615L392.818 59.6832L393.646 61.5039ZM404.316 192.103C404.249 192.641 403.818 192.836 403.733 192.87C403.667 192.896 403.615 192.907 403.59 192.912C403.563 192.917 403.546 192.918 403.542 192.919C403.541 192.919 403.595 192.917 403.731 192.929C403.986 192.952 404.35 193.007 404.767 193.076C405.157 193.14 405.629 193.223 405.992 193.281C406.335 193.337 406.729 193.396 406.985 193.396V191.396C406.985 191.396 406.968 191.396 406.926 191.393C406.887 191.389 406.836 191.384 406.773 191.376C406.647 191.36 406.491 191.336 406.31 191.307C405.932 191.246 405.535 191.175 405.093 191.102C404.678 191.034 404.247 190.968 403.911 190.937C403.752 190.923 403.561 190.911 403.389 190.924C403.311 190.93 403.159 190.946 402.995 191.011C402.861 191.064 402.403 191.284 402.332 191.855L404.316 192.103ZM406.985 193.396H410.622V191.396H406.985V193.396ZM410.622 193.396C412.996 193.396 414.922 192.465 416.741 191.835L416.087 189.945C413.99 190.671 412.555 191.396 410.622 191.396V193.396ZM416.741 191.835C419.689 190.814 422.38 190.059 425.38 190.059V188.059C422.037 188.059 419.089 188.906 416.087 189.945L416.741 191.835ZM425.38 190.059C427.899 190.059 430.307 190.103 432.462 190.921L433.172 189.051C430.623 188.084 427.856 188.059 425.38 188.059V190.059ZM432.462 190.921C433.137 191.177 433.817 191.345 434.445 191.49C435.091 191.64 435.666 191.763 436.228 191.938L436.82 190.028C436.169 189.826 435.497 189.681 434.896 189.542C434.277 189.398 433.71 189.256 433.172 189.051L432.462 190.921ZM436.228 191.938C436.432 192.001 436.49 192.041 436.814 192.158C437.066 192.25 437.408 192.354 437.81 192.354V190.354C437.75 190.354 437.663 190.339 437.495 190.278C437.399 190.243 437.046 190.098 436.82 190.028L436.228 191.938ZM437.81 190.354H436.061V192.354H437.81V190.354ZM409.098 209.002C413.605 210.279 417.153 208.617 420.861 207.036L420.076 205.196C416.243 206.831 413.361 208.131 409.644 207.078L409.098 209.002ZM420.861 207.036C421.298 206.85 421.979 206.598 422.51 206.351C423.092 206.08 423.709 205.726 424.246 205.189L422.831 203.775C422.526 204.08 422.141 204.316 421.665 204.538C421.137 204.784 420.704 204.929 420.076 205.196L420.861 207.036ZM424.246 205.189C424.378 205.057 424.489 204.918 424.574 204.81C424.672 204.684 424.724 204.614 424.792 204.531C424.922 204.374 424.949 204.386 424.909 204.4L424.276 202.502C423.769 202.672 423.444 203.023 423.253 203.255C423.16 203.366 423.057 203.502 422.998 203.579C422.925 203.672 422.875 203.732 422.831 203.775L424.246 205.189ZM405.479 187.496C403.82 188.11 402.486 189.078 401.295 190.118C400.702 190.636 400.133 191.182 399.58 191.713C399.022 192.249 398.479 192.77 397.914 193.268L399.235 194.769C399.839 194.238 400.413 193.686 400.965 193.155C401.523 192.62 402.058 192.106 402.61 191.624C403.711 190.664 404.834 189.868 406.174 189.371L405.479 187.496ZM397.914 193.268C396.989 194.082 396.16 194.856 395.24 195.469L396.349 197.133C397.412 196.425 398.376 195.526 399.235 194.769L397.914 193.268ZM395.24 195.469C395.199 195.497 395.141 195.538 395.08 195.595C395.028 195.644 394.922 195.752 394.843 195.92C394.753 196.112 394.686 196.42 394.827 196.751C394.953 197.047 395.177 197.193 395.288 197.253C395.492 197.361 395.687 197.375 395.725 197.378C395.801 197.385 395.871 197.384 395.919 197.383C396.016 197.38 396.117 197.372 396.177 197.366C396.276 197.358 396.264 197.359 396.235 197.359V195.359C396.149 195.359 396.028 195.372 396.001 195.374C395.935 195.38 395.893 195.383 395.868 195.384C395.855 195.384 395.868 195.383 395.898 195.385C395.913 195.387 395.947 195.39 395.992 195.4C396.03 195.408 396.121 195.43 396.228 195.487C396.329 195.541 396.545 195.679 396.667 195.967C396.805 196.29 396.738 196.588 396.654 196.768C396.58 196.926 396.484 197.021 396.446 197.056C396.401 197.098 396.364 197.124 396.349 197.133L395.24 195.469ZM436.527 193.389C437.073 193.389 437.51 193.421 438.148 193.431C438.722 193.441 439.351 193.427 439.972 193.312L439.608 191.345C439.183 191.424 438.711 191.44 438.181 191.432C437.714 191.424 437.043 191.389 436.527 191.389V193.389ZM439.972 193.312C440.166 193.276 440.399 193.194 440.596 193.112C440.806 193.024 441.055 192.904 441.279 192.757C441.391 192.684 441.517 192.591 441.633 192.478C441.741 192.374 441.895 192.199 441.988 191.954C442.095 191.672 442.112 191.311 441.925 190.966C441.762 190.664 441.507 190.498 441.325 190.407L440.43 192.195C440.423 192.192 440.276 192.12 440.167 191.919C440.034 191.675 440.052 191.419 440.118 191.245C440.146 191.17 440.179 191.119 440.199 191.092C440.22 191.063 440.235 191.048 440.239 191.045C440.244 191.04 440.23 191.054 440.185 191.083C440.096 191.142 439.965 191.208 439.828 191.265C439.678 191.328 439.596 191.347 439.608 191.345L439.972 193.312ZM437.598 236.386C440.132 239.032 445.834 246.511 448.181 255.009L450.109 254.476C447.646 245.559 441.72 237.799 439.042 235.003L437.598 236.386ZM448.181 255.009C450.59 263.726 452.399 269.548 453.007 271.383L454.906 270.754C454.311 268.961 452.512 263.173 450.109 254.476L448.181 255.009ZM453.957 272.069H519.655V270.069H453.957V272.069ZM502.949 89.5023C505.923 93.3705 514.33 103.377 524.279 112.618L525.64 111.153C515.786 102 507.453 92.0794 504.534 88.2831L502.949 89.5023ZM524.279 112.618C529.242 117.228 532.414 119.588 534.391 120.639C535.347 121.148 536.181 121.439 536.866 121.39C537.243 121.363 537.649 121.226 537.953 120.888C538.252 120.557 538.336 120.161 538.336 119.845H536.336C536.336 119.823 536.344 119.687 536.468 119.549C536.598 119.405 536.733 119.394 536.724 119.395C536.635 119.401 536.231 119.353 535.331 118.874C533.594 117.95 530.579 115.741 525.64 111.153L524.279 112.618ZM405.455 48.0121C407.61 45.7125 411.613 42.1403 416.558 38.9732C421.511 35.8012 427.331 33.0859 433.132 32.4032L432.898 30.4169C426.676 31.1491 420.561 34.0347 415.48 37.289C410.391 40.5481 406.26 44.2276 403.995 46.6445L405.455 48.0121ZM523.45 42.1258C521.606 43.6021 519.259 47.888 522.297 53.9659L524.086 53.0717C521.466 47.8299 523.598 44.5694 524.7 43.6874L523.45 42.1258ZM522.297 53.9659C525.994 61.3635 531.571 64.1391 536.081 65.9437L536.824 64.0869C532.493 62.3541 527.461 59.8237 524.086 53.0717L522.297 53.9659ZM530.148 37.6005C530.148 39.2504 530.237 41.979 530.506 44.8351C530.773 47.6741 531.223 50.7155 531.967 52.9506L533.865 52.3183C533.195 50.3084 532.761 47.4541 532.497 44.648C532.235 41.8591 532.148 39.1932 532.148 37.6005H530.148ZM531.967 52.9506C533.452 57.4072 536.296 60.3996 537.62 61.3935L538.821 59.7936C537.788 59.0189 535.209 56.3513 533.865 52.3183L531.967 52.9506ZM535.62 29.9711C535.061 30.8102 533.393 33.0564 531.325 35.1248L532.739 36.5388C534.915 34.3623 536.665 32.0099 537.284 31.0803L535.62 29.9711ZM531.325 35.1248C530.067 36.3832 528.367 37.6613 526.765 38.6223C525.967 39.1017 525.211 39.491 524.565 39.7572C523.891 40.0348 523.432 40.1379 523.191 40.1379V42.1379C523.835 42.1379 524.591 41.9093 525.326 41.6065C526.089 41.2924 526.936 40.8527 527.795 40.3371C529.509 39.3084 531.345 37.9334 532.739 36.5388L531.325 35.1248ZM523.191 40.1379C522.231 40.1379 521.615 40.1159 521.207 39.9119C521.049 39.8328 520.935 39.7289 520.847 39.5584C520.749 39.3701 520.655 39.0439 520.655 38.4848H518.655C518.655 39.2523 518.782 39.921 519.071 40.4788C519.369 41.0545 519.808 41.4481 520.313 41.7006C521.231 42.1598 522.383 42.1379 523.191 42.1379V40.1379ZM520.655 38.4848C520.655 38.1636 520.773 37.7018 521.046 37.1108C521.312 36.5344 521.692 35.9072 522.132 35.2767C523.013 34.0151 524.078 32.8216 524.782 32.117L523.368 30.703C522.599 31.4724 521.454 32.7551 520.493 34.1318C520.012 34.8205 519.563 35.553 519.231 36.2717C518.905 36.9759 518.655 37.7448 518.655 38.4848H520.655ZM524.7 32.1908C525.416 31.6179 526.629 30.7078 527.919 29.8571C529.232 28.9916 530.538 28.2459 531.464 27.9369L530.832 26.0396C529.636 26.4381 528.143 27.3138 526.818 28.1875C525.47 29.076 524.208 30.023 523.45 30.6293L524.7 32.1908ZM531.464 27.9369C533.375 27.2997 535.49 27.4539 536.26 27.6048L536.645 25.6421C535.647 25.4467 533.164 25.262 530.832 26.0396L531.464 27.9369ZM535.793 27.3755C535.928 27.4933 536.151 27.792 536.215 28.2134C536.274 28.5973 536.215 29.1768 535.653 29.9249L537.252 31.1265C538.104 29.9926 538.34 28.8793 538.192 27.9116C538.05 26.9816 537.566 26.2701 537.111 25.8714L535.793 27.3755ZM274.699 271.259C271.095 282.109 269.825 293.179 272.926 303.201L274.837 302.609C271.904 293.132 273.066 282.519 276.597 271.889L274.699 271.259ZM286.57 257.083C287.088 260.19 286.017 262.891 283.934 265.178C281.832 267.488 278.719 269.342 275.294 270.639L276.002 272.509C279.61 271.144 283.03 269.142 285.413 266.525C287.816 263.886 289.182 260.59 288.543 256.755L286.57 257.083ZM275.294 270.639C271.679 272.007 267.801 272.722 264.571 272.722V274.722C268.065 274.722 272.182 273.955 276.002 272.509L275.294 270.639ZM317.09 139.4C317.591 144.411 317.638 150.633 317.371 157.417L319.369 157.496C319.639 150.669 319.594 144.343 319.08 139.201L317.09 139.4ZM305.375 139.965C310.075 145.254 314.366 151.317 317.465 157.883L319.274 157.029C316.076 150.255 311.667 144.035 306.87 138.636L305.375 139.965ZM317.465 157.883C318.982 161.096 320.212 164.426 321.065 167.842L323.006 167.357C322.117 163.8 320.84 160.346 319.274 157.029L317.465 157.883Z" fill="#F18AC8"/>
</svg>
